HIERARCHY
ROOT newVegas:Hips
{
	OFFSET 0.000000 96.479958 0.000000
	CHANNELS 6 Xposition Yposition Zposition Xrotation Yrotation Zrotation
	JOINT newVegas:Pelvis
	{
		OFFSET 0.000000 0.000000 0.000000
		CHANNELS 3 Xrotation Yrotation Zrotation
		JOINT newVegas:LeftUpLeg
		{
			OFFSET 18.735201 -5.666702 -4.541200
			CHANNELS 3 Xrotation Yrotation Zrotation
			JOINT newVegas:LeftLeg
			{
				OFFSET -0.021200 -31.938179 0.493100
				CHANNELS 3 Xrotation Yrotation Zrotation
				JOINT newVegas:LeftFoot
				{
					OFFSET 0.021200 -31.938179 -4.336299
					CHANNELS 3 Xrotation Yrotation Zrotation
					JOINT newVegas:LeftToeBase
					{
						OFFSET 0.943001 -26.722000 15.023500
						CHANNELS 3 Xrotation Yrotation Zrotation
						End Site
						{
							OFFSET 0.000000 30.670183 0.000000
						}
					}
				}
				JOINT newVegas:Left_PantLeg
				{
					OFFSET 0.663870 -9.044666 -1.108900
					CHANNELS 3 Xrotation Yrotation Zrotation
					End Site
					{
						OFFSET 1.415995 20.635357 0.000000
					}
				}
			}
		}
		JOINT newVegas:RightUpLeg
		{
			OFFSET -18.735201 -5.666702 -4.541200
			CHANNELS 3 Xrotation Yrotation Zrotation
			JOINT newVegas:RightLeg
			{
				OFFSET 0.018946 -31.938133 0.493100
				CHANNELS 3 Xrotation Yrotation Zrotation
				JOINT newVegas:RightFoot
				{
					OFFSET -0.018946 -31.938126 -4.336299
					CHANNELS 3 Xrotation Yrotation Zrotation
					JOINT newVegas:RightToeBase
					{
						OFFSET -0.943001 -26.722004 15.023500
						CHANNELS 3 Xrotation Yrotation Zrotation
						End Site
						{
							OFFSET 0.000000 30.670187 0.000000
						}
					}
				}
				JOINT newVegas:Right_PantLeg
				{
					OFFSET -0.661674 -9.044716 -1.108900
					CHANNELS 3 Xrotation Yrotation Zrotation
					End Site
					{
						OFFSET -1.415958 20.635269 0.000000
					}
				}
			}
		}
	}
	JOINT newVegas:Spine
	{
		OFFSET 0.000000 10.199997 -0.299500
		CHANNELS 3 Xrotation Yrotation Zrotation
		JOINT newVegas:Spine1
		{
			OFFSET 0.000000 11.900002 -1.516600
			CHANNELS 3 Xrotation Yrotation Zrotation
			JOINT newVegas:Spine2
			{
				OFFSET 0.000000 13.600006 -2.842500
				CHANNELS 3 Xrotation Yrotation Zrotation
				JOINT newVegas:Neck
				{
					OFFSET 0.000000 9.624100 -2.890100
					CHANNELS 3 Xrotation Yrotation Zrotation
					JOINT newVegas:Head
					{
						OFFSET 0.000000 14.068802 -1.351900
						CHANNELS 3 Xrotation Yrotation Zrotation
						JOINT newVegas:Hair_Back
						{
							OFFSET 0.000000 3.231903 -17.524799
							CHANNELS 3 Xrotation Yrotation Zrotation
							End Site
							{
								OFFSET 0.000000 19.849884 0.000000
							}
						}
						JOINT newVegas:Hair_Front
						{
							OFFSET 0.000000 31.260406 4.573800
							CHANNELS 3 Xrotation Yrotation Zrotation
							JOINT newVegas:Hair_Front1
							{
								OFFSET 0.000000 2.284103 11.993300
								CHANNELS 3 Xrotation Yrotation Zrotation
								JOINT newVegas:Hair_Front2
								{
									OFFSET 0.000000 2.284103 11.993300
									CHANNELS 3 Xrotation Yrotation Zrotation
									End Site
									{
										OFFSET 0.000000 12.208862 0.000000
									}
								}
							}
						}
						JOINT newVegas:Jowel
						{
							OFFSET 0.000000 -7.458206 6.864100
							CHANNELS 3 Xrotation Yrotation Zrotation
							End Site
							{
								OFFSET 0.000000 19.849884 0.000000
							}
						}
					}
				}
				JOINT newVegas:LeftShoulder
				{
					OFFSET 15.263000 10.923401 -0.547700
					CHANNELS 3 Xrotation Yrotation Zrotation
					JOINT newVegas:LeftArm
					{
						OFFSET 25.438599 -2.830597 -13.032500
						CHANNELS 3 Xrotation Yrotation Zrotation
						JOINT newVegas:LeftForeArm
						{
							OFFSET 29.960503 0.000000 0.000000
							CHANNELS 3 Xrotation Yrotation Zrotation
							JOINT newVegas:LeftHand
							{
								OFFSET 27.849251 0.000000 0.000000
								CHANNELS 3 Xrotation Yrotation Zrotation
								JOINT newVegas:LeftHandThumb1
								{
									OFFSET 4.487587 -3.305161 6.305391
									CHANNELS 3 Xrotation Yrotation Zrotation
									JOINT newVegas:LeftHandThumb2
									{
										OFFSET 5.480453 -3.164139 3.164143
										CHANNELS 3 Xrotation Yrotation Zrotation
										JOINT newVegas:LeftHandThumb3
										{
											OFFSET 5.159721 -2.978973 2.978967
											CHANNELS 3 Xrotation Yrotation Zrotation
											End Site
											{
												OFFSET 2.494507 5.926697 1.738678
											}
										}
									}
								}
								JOINT newVegas:LeftHandIndex1
								{
									OFFSET 18.578728 -0.527832 5.208049
									CHANNELS 3 Xrotation Yrotation Zrotation
									JOINT newVegas:LeftHandIndex2
									{
										OFFSET 3.192009 0.000000 0.000000
										CHANNELS 3 Xrotation Yrotation Zrotation
										JOINT newVegas:LeftHandIndex3
										{
											OFFSET 3.835129 0.000000 0.000000
											CHANNELS 3 Xrotation Yrotation Zrotation
											End Site
											{
												OFFSET -0.034599 3.816971 0.371180
											}
										}
									}
								}
								JOINT newVegas:LeftHandMiddle1
								{
									OFFSET 18.476105 0.000000 0.000000
									CHANNELS 3 Xrotation Yrotation Zrotation
									JOINT newVegas:LeftHandMiddle2
									{
										OFFSET 3.324875 0.000000 0.000000
										CHANNELS 3 Xrotation Yrotation Zrotation
										JOINT newVegas:LeftHandMiddle3
										{
											OFFSET 4.596550 0.000000 0.000000
											CHANNELS 3 Xrotation Yrotation Zrotation
											End Site
											{
												OFFSET 0.057701 4.578827 0.399218
											}
										}
									}
								}
								JOINT newVegas:LeftHandRing1
								{
									OFFSET 17.732719 0.121887 -4.201567
									CHANNELS 3 Xrotation Yrotation Zrotation
									JOINT newVegas:LeftHandRing2
									{
										OFFSET 2.733170 0.000000 0.000000
										CHANNELS 3 Xrotation Yrotation Zrotation
										JOINT newVegas:LeftHandRing3
										{
											OFFSET 3.178268 0.000000 0.000000
											CHANNELS 3 Xrotation Yrotation Zrotation
											End Site
											{
												OFFSET 0.119102 3.170624 0.185394
											}
										}
									}
								}
								JOINT newVegas:LeftHandPinky1
								{
									OFFSET 15.989624 -0.606689 -7.535461
									CHANNELS 3 Xrotation Yrotation Zrotation
									JOINT newVegas:LeftHandPinky2
									{
										OFFSET 2.538986 0.000000 0.000000
										CHANNELS 3 Xrotation Yrotation Zrotation
										JOINT newVegas:LeftHandPinky3
										{
											OFFSET 2.593102 0.000000 0.000000
											CHANNELS 3 Xrotation Yrotation Zrotation
											End Site
											{
												OFFSET -0.150902 2.584198 0.152708
											}
										}
									}
								}
							}
							JOINT newVegas:Left_Sleeve
							{
								OFFSET 0.267448 -0.649796 0.577675
								CHANNELS 3 Xrotation Yrotation Zrotation
								End Site
								{
									OFFSET 0.000000 15.991241 0.000000
								}
							}
							JOINT newVegas:Left_CapeC
							{
								OFFSET 15.715958 -8.608795 -6.935905
								CHANNELS 3 Xrotation Yrotation Zrotation
								JOINT newVegas:Left_CapeC1
								{
									OFFSET 0.000000 -8.688499 0.000000
									CHANNELS 3 Xrotation Yrotation Zrotation
									End Site
									{
										OFFSET 0.000000 8.688499 0.000000
									}
								}
							}
						}
						JOINT newVegas:Left_CapeB
						{
							OFFSET 26.118385 -8.608795 -7.079235
							CHANNELS 3 Xrotation Yrotation Zrotation
							JOINT newVegas:Left_CapeB1
							{
								OFFSET 0.000000 -8.688499 0.000000
								CHANNELS 3 Xrotation Yrotation Zrotation
								End Site
								{
									OFFSET 0.000000 8.688499 0.000000
								}
							}
						}
						JOINT newVegas:Left_CapeA
						{
							OFFSET 5.115639 -8.608795 -10.395809
							CHANNELS 3 Xrotation Yrotation Zrotation
							JOINT newVegas:Left_CapeA1
							{
								OFFSET 0.000000 -8.688499 0.000000
								CHANNELS 3 Xrotation Yrotation Zrotation
								End Site
								{
									OFFSET 0.000000 8.688499 0.000000
								}
							}
						}
					}
				}
				JOINT newVegas:RightShoulder
				{
					OFFSET -15.263000 10.923401 -0.547700
					CHANNELS 3 Xrotation Yrotation Zrotation
					JOINT newVegas:RightArm
					{
						OFFSET -25.438599 -2.830597 -13.032500
						CHANNELS 3 Xrotation Yrotation Zrotation
						JOINT newVegas:RightForeArm
						{
							OFFSET -29.960503 0.000000 0.000000
							CHANNELS 3 Xrotation Yrotation Zrotation
							JOINT newVegas:RightHand
							{
								OFFSET -27.849251 0.000000 0.000000
								CHANNELS 3 Xrotation Yrotation Zrotation
								JOINT newVegas:RightHandThumb1
								{
									OFFSET -4.487587 -3.305161 6.305391
									CHANNELS 3 Xrotation Yrotation Zrotation
									JOINT newVegas:RightHandThumb2
									{
										OFFSET -5.480453 -3.164139 3.164143
										CHANNELS 3 Xrotation Yrotation Zrotation
										JOINT newVegas:RightHandThumb3
										{
											OFFSET -5.159721 -2.978973 2.978967
											CHANNELS 3 Xrotation Yrotation Zrotation
											End Site
											{
												OFFSET -2.494507 5.926697 1.738678
											}
										}
									}
								}
								JOINT newVegas:RightHandIndex1
								{
									OFFSET -18.578728 -0.527832 5.208049
									CHANNELS 3 Xrotation Yrotation Zrotation
									JOINT newVegas:RightHandIndex2
									{
										OFFSET -3.192009 0.000000 0.000000
										CHANNELS 3 Xrotation Yrotation Zrotation
										JOINT newVegas:RightHandIndex3
										{
											OFFSET -3.835129 0.000000 0.000000
											CHANNELS 3 Xrotation Yrotation Zrotation
											End Site
											{
												OFFSET 0.034599 3.816971 0.371180
											}
										}
									}
								}
								JOINT newVegas:RightHandMiddle1
								{
									OFFSET -18.476105 0.000000 0.000000
									CHANNELS 3 Xrotation Yrotation Zrotation
									JOINT newVegas:RightHandMiddle2
									{
										OFFSET -3.324875 0.000000 0.000000
										CHANNELS 3 Xrotation Yrotation Zrotation
										JOINT newVegas:RightHandMiddle3
										{
											OFFSET -4.596550 0.000000 0.000000
											CHANNELS 3 Xrotation Yrotation Zrotation
											End Site
											{
												OFFSET -0.057701 4.578827 0.399218
											}
										}
									}
								}
								JOINT newVegas:RightHandRing1
								{
									OFFSET -17.732719 0.121887 -4.201567
									CHANNELS 3 Xrotation Yrotation Zrotation
									JOINT newVegas:RightHandRing2
									{
										OFFSET -2.733170 0.000000 0.000000
										CHANNELS 3 Xrotation Yrotation Zrotation
										JOINT newVegas:RightHandRing3
										{
											OFFSET -3.178268 0.000000 0.000000
											CHANNELS 3 Xrotation Yrotation Zrotation
											End Site
											{
												OFFSET -0.119102 3.170624 0.185394
											}
										}
									}
								}
								JOINT newVegas:RightHandPinky1
								{
									OFFSET -15.989624 -0.606689 -7.535461
									CHANNELS 3 Xrotation Yrotation Zrotation
									JOINT newVegas:RightHandPinky2
									{
										OFFSET -2.538986 0.000000 0.000000
										CHANNELS 3 Xrotation Yrotation Zrotation
										JOINT newVegas:RightHandPinky3
										{
											OFFSET -2.593102 0.000000 0.000000
											CHANNELS 3 Xrotation Yrotation Zrotation
											End Site
											{
												OFFSET 0.150902 2.584198 0.152708
											}
										}
									}
								}
							}
							JOINT newVegas:Right_CapeC
							{
								OFFSET -15.715958 -8.608795 -6.935905
								CHANNELS 3 Xrotation Yrotation Zrotation
								JOINT newVegas:Right_CapeC1
								{
									OFFSET 0.000000 -8.688499 0.000000
									CHANNELS 3 Xrotation Yrotation Zrotation
									End Site
									{
										OFFSET 0.000000 8.688499 0.000000
									}
								}
							}
							JOINT newVegas:Right_Sleeve
							{
								OFFSET -0.267448 -0.649994 0.577675
								CHANNELS 3 Xrotation Yrotation Zrotation
								End Site
								{
									OFFSET 0.000000 15.991302 0.000000
								}
							}
						}
						JOINT newVegas:Right_CapeA
						{
							OFFSET -5.115540 -8.608795 -10.395824
							CHANNELS 3 Xrotation Yrotation Zrotation
							JOINT newVegas:Right_CapeA1
							{
								OFFSET 0.000000 -8.688499 0.000000
								CHANNELS 3 Xrotation Yrotation Zrotation
								End Site
								{
									OFFSET 0.000000 8.688499 0.000000
								}
							}
						}
						JOINT newVegas:Right_CapeB
						{
							OFFSET -26.118187 -8.608795 -7.079266
							CHANNELS 3 Xrotation Yrotation Zrotation
							JOINT newVegas:Right_CapeB1
							{
								OFFSET 0.000000 -8.688499 0.000000
								CHANNELS 3 Xrotation Yrotation Zrotation
								End Site
								{
									OFFSET 0.000000 8.688499 0.000000
								}
							}
						}
					}
				}
				JOINT newVegas:Left_Collar
				{
					OFFSET 18.625099 8.655502 8.828100
					CHANNELS 3 Xrotation Yrotation Zrotation
					JOINT newVegas:Left_Collar1
					{
						OFFSET 14.783401 10.540405 -1.259500
						CHANNELS 3 Xrotation Yrotation Zrotation
						End Site
						{
							OFFSET 0.000000 18.199875 0.000000
						}
					}
				}
				JOINT newVegas:Collar_Back
				{
					OFFSET 0.000000 15.630707 -20.132601
					CHANNELS 3 Xrotation Yrotation Zrotation
					End Site
					{
						OFFSET 0.000000 22.523010 0.000000
					}
				}
				JOINT newVegas:Left_Peck
				{
					OFFSET 17.239599 -5.132599 25.482599
					CHANNELS 3 Xrotation Yrotation Zrotation
					End Site
					{
						OFFSET 0.000000 22.523010 0.000000
					}
				}
				JOINT newVegas:Right_Peck
				{
					OFFSET -17.239599 -5.132202 25.482599
					CHANNELS 3 Xrotation Yrotation Zrotation
					End Site
					{
						OFFSET 0.000000 22.523010 0.000000
					}
				}
				JOINT newVegas:Right_Collar
				{
					OFFSET -18.625099 8.655792 8.828100
					CHANNELS 3 Xrotation Yrotation Zrotation
					JOINT newVegas:Right_Collar1
					{
						OFFSET -14.783401 10.539993 -1.259500
						CHANNELS 3 Xrotation Yrotation Zrotation
						End Site
						{
							OFFSET 0.000000 18.199631 0.000000
						}
					}
				}
			}
		}
		JOINT newVegas:Belly
		{
			OFFSET 0.000000 -6.540398 9.014299
			CHANNELS 3 Xrotation Yrotation Zrotation
			End Site
			{
				OFFSET 0.000000 11.566666 0.000000
			}
		}
	}
	JOINT newVegas:ElvisFacialAnim_Joint
	{
		OFFSET 1.000000 -95.330101 -8.825800
		CHANNELS 3 Xrotation Yrotation Zrotation
		End Site
		{
			OFFSET 0.000000 35.315800 0.000000
		}
	}
}
MOTION
Frames: 4
Frame Time: 0.033333
87.322502 48.486176 112.952446 -0.086685 115.378506 31.790730 -0.000000 -0.000002 -0.000002 -69.499880 -11.112760 5.918979 26.379632 8.731953 10.202034 21.029027 1.313837 10.099399 0.000001 0.000001 0.000001 0.000001 0.000005 -0.000003 -149.614351 5.540662 1.078954 153.950579 -28.439470 -6.399214 -5.689891 -9.936879 -12.763404 -0.000000 0.000000 -0.000000 0.000000 0.000000 -0.000000 40.731010 -3.587917 -6.445144 5.153390 0.487944 -3.036158 5.116143 0.800295 -3.202360 -0.916854 -0.108696 -1.511053 -0.916846 -0.108696 -1.511040 -0.000003 0.000001 -0.000001 -0.916896 -0.108631 -1.511069 -0.916729 -0.108826 -1.511024 -0.000001 0.000002 0.000001 -0.000003 0.000001 -0.000001 0.253595 -9.383031 -13.401992 -51.115254 -39.371420 -45.286613 0.000004 -16.386932 0.000001 50.834991 -25.651460 36.067220 -0.086301 -13.480329 15.784598 8.604395 27.060740 5.095542 0.000000 -0.000004 -0.000001 1.522703 -3.420818 11.161878 0.001232 0.120197 -1.173026 0.000001 -0.000001 0.000000 0.236039 0.604958 6.976061 0.029513 0.587940 -5.747159 -0.000001 0.000001 0.000001 0.154624 3.397664 -8.727040 0.005315 0.249806 -2.438404 -0.000002 0.000001 0.000002 -3.611765 10.454231 -14.887265 0.004010 0.217111 -2.119108 0.000001 -0.000002 -0.000002 -0.000000 0.000001 -0.000001 -0.000000 0.000001 -0.000001 0.000000 0.000001 -0.000001 0.000000 0.000001 0.000001 0.000001 0.000001 0.000001 0.000000 0.000001 0.000001 0.000001 0.000001 0.000001 0.889230 16.338140 8.631169 0.449183 39.834066 6.275816 -0.000004 19.089706 0.000015 16.170886 22.184077 -20.653749 22.854214 9.673057 -12.077589 2.682124 -24.785670 -5.202090 0.000000 -0.000004 0.000001 1.867939 2.807249 0.852591 0.110803 -1.010936 12.510226 -0.000002 -0.000002 0.000001 0.217617 1.383343 -2.591126 0.296744 -1.637407 20.543097 0.000002 -0.000000 -0.000003 -0.061728 -0.424475 3.247056 0.094271 -0.933271 11.535292 -0.000001 -0.000001 -0.000002 -0.998829 -5.256409 2.889576 0.068369 -0.795970 9.819570 0.000002 0.000003 -0.000002 -0.000001 0.000003 -0.000000 -0.000001 0.000003 0.000000 -0.000001 0.000003 -0.000000 0.000001 -0.000001 0.000001 0.000001 0.000000 0.000002 0.000001 -0.000001 0.000001 0.000001 0.000000 0.000002 -0.000000 0.000000 0.000002 -0.000000 0.000000 0.000002 -0.000000 0.000000 0.000002 -0.000000 0.000000 0.000002 -0.000000 0.000000 0.000002 -0.000000 0.000000 0.000002 -0.000000 0.000000 0.000002 0.000001 -0.000002 0.000000 -0.000000 -0.000002 -0.000002 
86.222694 46.446190 114.881180 -0.032332 125.470889 32.798534 -0.000001 0.000001 -0.000000 -68.678030 -13.916703 9.106087 42.902010 8.946931 10.482828 14.851883 -0.070885 2.164086 0.000003 0.000003 0.000000 -0.000001 -0.000001 0.000003 -164.351509 2.967623 10.895738 154.640523 -27.517089 -6.367162 9.367499 -12.652194 -14.186728 -0.000000 -0.000000 0.000000 0.000000 -0.000000 0.000000 39.986598 -5.350605 -6.572204 5.111282 0.185555 -3.382600 5.079991 0.538615 -3.545096 -0.942847 -0.109256 -1.695202 -0.942851 -0.109251 -1.695207 0.000003 -0.000001 -0.000000 -0.942851 -0.109239 -1.695222 -0.942798 -0.109297 -1.695205 0.000003 0.000000 -0.000002 0.000003 -0.000001 0.000001 -0.043023 -10.018201 -14.760674 -48.903485 -39.909321 -46.773170 0.000003 -15.155199 -0.000005 51.294523 -23.276559 30.070772 0.044978 -13.419023 15.823037 8.597061 26.963213 5.086262 -0.000000 0.000001 -0.000003 1.430937 -3.586438 11.869123 0.000837 0.099066 -0.966764 -0.000001 0.000000 -0.000000 0.305571 0.226793 7.904469 0.020679 0.492335 -4.810250 -0.000002 -0.000000 -0.000002 0.068212 2.795920 -7.915208 0.004047 0.217886 -2.126589 0.000001 0.000001 0.000003 -3.601910 9.953638 -14.011024 0.001353 0.126137 -1.230951 0.000001 -0.000002 -0.000000 0.000000 0.000000 0.000003 0.000000 0.000000 0.000003 0.000001 -0.000000 0.000003 -0.000000 0.000000 0.000002 -0.000000 0.000000 -0.000001 -0.000000 0.000000 0.000002 -0.000000 -0.000000 0.000002 0.427209 16.833233 11.075750 -1.600332 36.950456 9.557314 0.000002 22.790784 -0.000006 23.259419 18.591415 -22.044026 23.120785 10.072357 -11.805966 2.552182 -22.880565 -6.771393 0.000002 -0.000004 -0.000001 1.865437 2.958166 -1.010978 0.090046 -0.912379 11.273442 -0.000001 -0.000001 0.000001 0.333147 1.545736 -4.330461 0.241919 -1.482963 18.529610 0.000004 -0.000001 -0.000000 0.031562 -0.543518 0.608478 0.076330 -0.840575 10.376055 0.000002 -0.000003 0.000002 -0.984642 -5.518292 0.230610 0.055490 -0.717547 8.843913 -0.000003 0.000003 -0.000001 0.000002 0.000000 -0.000004 0.000001 0.000001 -0.000002 0.000002 -0.000000 -0.000003 0.000000 0.000000 -0.000002 0.000001 0.000000 -0.000002 0.000000 0.000000 -0.000002 0.000001 -0.000000 -0.000002 -0.000000 -0.000002 0.000003 -0.000000 -0.000002 0.000003 -0.000000 -0.000002 0.000003 -0.000000 -0.000002 0.000003 -0.000000 -0.000002 0.000003 -0.000000 -0.000002 0.000003 -0.000000 -0.000002 0.000003 -0.000003 0.000000 0.000000 -0.000001 0.000001 -0.000000 
85.767273 44.639687 117.161819 -0.755516 134.565150 34.414045 0.000001 0.000001 -0.000003 -66.020923 -12.759966 7.636749 56.565246 10.940663 10.582164 11.201515 -0.134850 12.197100 -0.000001 -0.000000 0.000001 0.000002 0.000001 0.000002 -175.995465 -1.974223 18.012168 153.928586 -25.858729 -6.511040 22.834181 -15.453428 -15.089942 -0.000001 0.000001 -0.000000 -0.000000 0.000001 -0.000001 39.527688 -6.482637 -6.762527 4.922055 0.020577 -3.592481 4.894975 0.396689 -3.753338 -1.027069 -0.123339 -1.901076 -1.027096 -0.123333 -1.901091 -0.000001 0.000000 -0.000000 -1.027123 -0.123359 -1.901083 -1.027031 -0.123338 -1.901072 0.000001 -0.000001 -0.000000 -0.000001 0.000000 0.000002 -0.531279 -11.183485 -15.690645 -45.927951 -39.337047 -47.513156 -0.000006 -13.848961 -0.000003 51.111050 -19.032160 20.810514 0.170562 -13.361666 15.856964 8.590370 26.873845 5.077722 -0.000000 0.000000 -0.000001 1.345784 -3.729778 12.338287 0.000544 0.079565 -0.776339 0.000001 0.000003 0.000001 0.375454 -0.124110 8.601834 0.013761 0.401703 -3.923268 -0.000001 -0.000000 -0.000001 0.004688 2.255247 -7.194909 0.002967 0.186881 -1.823870 -0.000000 0.000001 0.000003 -3.554943 9.539087 -13.123273 0.000193 0.048169 -0.470086 0.000006 -0.000002 -0.000000 0.000000 0.000000 0.000001 0.000000 0.000000 0.000001 0.000000 0.000001 0.000001 -0.000000 0.000000 -0.000002 -0.000000 -0.000000 -0.000005 -0.000000 0.000000 -0.000002 -0.000001 0.000000 -0.000002 -0.209120 17.709267 13.197745 -4.518703 34.527255 13.360880 0.000009 23.887656 0.000000 27.702645 15.582139 -24.938981 23.392037 10.507501 -11.523750 2.430725 -20.940218 -8.330968 0.000001 0.000001 -0.000006 1.869408 3.109072 -2.863114 0.071668 -0.814649 10.052865 0.000001 0.000001 0.000001 0.455634 1.703507 -6.091863 0.192230 -1.325574 16.502191 -0.000000 0.000001 -0.000002 0.104601 -0.665604 -2.056265 0.060175 -0.747041 9.210664 0.000000 -0.000001 0.000001 -1.007456 -5.764711 -2.412110 0.044081 -0.639914 7.880616 0.000003 0.000002 0.000000 0.000002 0.000001 -0.000000 0.000002 0.000000 -0.000001 0.000002 0.000000 -0.000002 0.000001 0.000001 0.000000 0.000001 0.000000 -0.000000 0.000001 0.000001 0.000000 0.000001 -0.000000 -0.000000 -0.000002 0.000001 -0.000001 -0.000002 0.000001 -0.000001 -0.000002 0.000001 -0.000001 -0.000002 0.000001 -0.000001 -0.000002 0.000001 -0.000001 -0.000002 0.000001 -0.000001 -0.000002 0.000001 -0.000001 0.000002 0.000001 0.000001 0.000001 0.000001 -0.000003 
85.774284 43.241722 119.715813 -3.125399 143.392240 35.550059 0.000000 0.000001 -0.000000 -61.749281 -12.710413 9.269982 66.457652 14.183040 10.728036 10.613626 2.005459 14.734123 0.000001 0.000000 -0.000000 -0.000001 -0.000000 -0.000000 -180.826758 -7.597540 16.731235 151.516655 -25.916490 -7.077814 26.928063 -17.420205 -18.939604 0.000001 0.000000 0.000000 0.000002 0.000000 -0.000003 39.032277 -6.947246 -6.743447 4.694445 -0.121103 -3.475623 4.674703 0.236617 -3.619332 -1.186224 -0.147632 -2.010741 -1.186228 -0.147639 -2.010717 -0.000001 0.000001 0.000001 -1.186160 -0.147583 -2.010747 -1.186169 -0.147735 -2.010716 0.000001 -0.000002 0.000001 -0.000001 0.000001 -0.000000 -1.263060 -12.742093 -16.821579 -43.676758 -35.988236 -48.166381 0.000003 -12.387570 0.000002 49.019807 -12.101418 13.442136 0.305988 -13.269939 15.879917 8.579023 26.725456 5.063675 0.000001 -0.000002 0.000002 1.329831 -3.841096 12.629818 0.000318 0.061398 -0.599117 0.000001 0.000000 0.000000 0.444381 -0.453532 9.135640 0.008588 0.317393 -3.098653 0.000000 -0.000001 0.000001 -0.038282 1.777389 -6.461106 0.002107 0.157081 -1.533140 0.000002 0.000001 -0.000004 -3.474743 9.219531 -12.161287 0.000010 0.010470 -0.102192 0.000002 -0.000002 -0.000000 -0.000000 0.000002 -0.000001 -0.000000 0.000002 -0.000001 -0.000001 0.000002 -0.000001 -0.000000 -0.000001 0.000001 0.000001 -0.000001 0.000000 -0.000000 -0.000001 0.000001 -0.000001 -0.000001 0.000001 -1.014733 18.569377 14.740936 -6.973470 33.558191 17.800574 -0.000000 21.969725 0.000021 26.596931 12.202163 -25.491939 23.615692 11.303293 -11.194388 2.296844 -18.123472 -10.422515 -0.000000 0.000000 -0.000002 1.883079 3.332350 -5.626570 0.049553 -0.678312 8.356553 0.000003 0.000001 -0.000003 0.638194 1.915873 -8.592150 0.132449 -1.103879 13.682142 0.000001 0.000000 -0.000000 0.171027 -0.841470 -5.796728 0.041115 -0.618121 7.610709 -0.000001 0.000001 0.000001 -1.103035 -6.105214 -6.193079 0.030438 -0.532065 6.546023 0.000002 0.000003 -0.000001 -0.000000 -0.000001 -0.000000 -0.000000 -0.000001 0.000000 -0.000000 -0.000001 -0.000000 0.000002 0.000001 0.000001 0.000003 0.000001 0.000001 0.000002 0.000001 0.000001 0.000003 0.000001 0.000001 0.000001 0.000001 -0.000000 0.000001 0.000001 -0.000000 0.000001 0.000001 -0.000000 0.000001 0.000001 -0.000000 0.000001 0.000001 -0.000000 0.000001 0.000001 -0.000000 0.000001 0.000001 -0.000000 0.000002 0.000001 -0.000003 0.000000 0.000001 -0.000000 
